<svg width="129" height="36" viewBox="0 0 129 36" fill="none" xmlns="http://www.w3.org/2000/svg">
<path d="M29.1667 32.2401C28 31.5734 27.25 30.8234 27.0833 29.9901C26.9167 29.1568 27.25 28.3234 28.1667 27.2401C29.8572 25.2863 30.9516 22.8885 31.3199 20.3313C31.6882 17.7741 31.315 15.1649 30.2446 12.8135C29.1742 10.462 27.4515 8.46714 25.281 7.06563C23.1106 5.66412 20.5836 4.91485 18 4.90677H17.9167C15.326 4.89888 12.7877 5.63659 10.6049 7.03185C8.422 8.42712 6.68669 10.421 5.60606 12.7756C4.52542 15.1301 4.1451 17.7459 4.51048 20.3107C4.87586 22.8755 5.97151 25.281 7.66667 27.2401C8.58333 28.3234 8.91667 29.1568 8.83333 29.9068C8.75 30.6568 7.91667 31.5734 6.66667 32.2401C4.69278 30.583 3.07667 28.5416 1.91667 26.2401C0.685227 23.8106 0.0294132 21.1304 1.063e-09 18.4068C-2.56447e-05 16.0578 0.463994 13.732 1.36541 11.5629C2.26682 9.39386 3.58788 7.42422 5.25269 5.76714C6.91751 4.11007 8.89328 2.79822 11.0666 1.90693C13.2398 1.01563 15.5678 0.562461 17.9167 0.573437H18C22.7297 0.573437 27.2657 2.4523 30.6101 5.7967C33.9545 9.1411 35.8333 13.6771 35.8333 18.4068C35.8233 19.7825 35.6555 21.1526 35.3333 22.4901C35.0329 23.7867 34.5856 25.0449 34 26.2401C32.842 28.5428 31.2256 30.5846 29.25 32.2401" fill="#F0424D"/>
<path d="M22.6668 35.5731C22.0166 35.1209 21.4522 34.5565 21.0001 33.9064C20.0866 32.6186 19.6184 31.0679 19.6668 29.4897C19.7005 28.287 19.9547 27.1007 20.4168 25.9897C20.8622 24.8536 21.5118 23.8086 22.3334 22.9064L22.5001 22.7397C22.8099 22.3748 23.0887 21.9845 23.3334 21.5731C23.6987 21.0658 23.9801 20.503 24.1668 19.9064C24.373 19.0548 24.3979 18.1694 24.2398 17.3076C24.0818 16.4458 23.7442 15.6268 23.2492 14.9039C22.7541 14.1809 22.1126 13.5701 21.3662 13.1112C20.6198 12.6522 19.7853 12.3553 18.9168 12.2397C18.6116 12.2167 18.3052 12.2167 18.0001 12.2397H17.9168C16.7491 12.1961 15.5931 12.4851 14.5834 13.0731C13.8672 13.5007 13.2439 14.0674 12.7501 14.7397C12.2178 15.4764 11.8525 16.3204 11.6798 17.2127C11.5071 18.105 11.5311 19.0243 11.7501 19.9064C11.8875 20.4923 12.1122 21.0541 12.4168 21.5731C12.6859 21.9892 12.9927 22.3798 13.3334 22.7397L13.5001 22.9897C14.3147 23.8659 14.9641 24.8823 15.4168 25.9897C15.9074 27.0952 16.1899 28.2818 16.2501 29.4897C16.2624 31.1145 15.7348 32.6973 14.7501 33.9897C14.3154 34.603 13.78 35.1383 13.1668 35.5731L12.1668 35.2397C11.1277 34.8889 10.1234 34.4426 9.16676 33.9064C9.97076 33.4822 10.6439 32.8468 11.1137 32.0686C11.5836 31.2904 11.8324 30.3988 11.8334 29.4897C11.8038 28.1894 11.3 26.9446 10.4168 25.9897L10.1668 25.6564L9.41676 24.8231C8.07738 23.022 7.34026 20.8444 7.31034 18.6001C7.28041 16.3558 7.9592 14.1592 9.25009 12.3231C10.0755 11.1571 11.1234 10.1658 12.3334 9.40641C13.6021 8.62043 15.0216 8.10942 16.5001 7.90641C16.9682 7.8205 17.4414 7.76482 17.9168 7.73975H18.0834C18.5866 7.76141 19.0878 7.81709 19.5834 7.90641C21.0331 8.12061 22.4231 8.63123 23.6668 9.40641C24.8391 10.1499 25.8575 11.1118 26.6668 12.2397C27.9699 14.071 28.6562 16.2696 28.6262 18.517C28.5963 20.7644 27.8516 22.9439 26.5001 24.7397L25.7501 25.5731L25.5001 25.9064C24.6046 26.8868 24.1005 28.162 24.0834 29.4897C24.0611 30.4044 24.2902 31.3076 24.7457 32.1011C25.2012 32.8945 25.8657 33.5478 26.6668 33.9897C25.7069 34.4969 24.7027 34.9153 23.6668 35.2397L22.6668 35.5731Z" fill="#F0424D"/>
<path d="M17.9167 22.0737C17.2245 22.0737 16.5478 21.8685 15.9722 21.4839C15.3966 21.0993 14.948 20.5527 14.6831 19.9131C14.4182 19.2736 14.3489 18.5698 14.4839 17.8909C14.619 17.212 14.9523 16.5883 15.4418 16.0989C15.9313 15.6094 16.5549 15.276 17.2339 15.141C17.9128 15.0059 18.6165 15.0752 19.2561 15.3402C19.8956 15.6051 20.4422 16.0537 20.8268 16.6292C21.2114 17.2048 21.4167 17.8815 21.4167 18.5737C21.4167 19.502 21.0479 20.3922 20.3916 21.0486C19.7352 21.705 18.8449 22.0737 17.9167 22.0737Z" fill="#F0424D"/>
<path d="M63 22.5731C63 27.1564 62.5834 28.4064 61.5 29.5731C60.8334 30.2397 59.8334 30.6564 57.9167 30.6564H51.0834C48.9167 30.6564 47.5834 30.3231 46.6667 29.4064C45.25 27.9064 44.8334 26.2397 44.8334 19.5731C44.8334 12.9064 45.25 11.2397 46.6667 9.73975C47.5 8.90641 48.9167 8.48975 51.0834 8.48975H57.75C59.8334 8.48975 60.75 8.90641 61.4167 9.57308C62.5 10.6564 62.9167 12.0731 62.9167 16.2397H58.75C58.6667 13.3231 58.5 12.9064 58.25 12.6564C58 12.4064 57.75 12.2397 56.75 12.2397H51.6667C50.4167 12.2397 50 12.3231 49.75 12.6564C49.3334 13.0731 49.1667 13.9064 49.1667 19.5731C49.1667 25.2397 49.3334 25.9897 49.75 26.4064C50.0834 26.7397 50.4167 26.8231 51.6667 26.8231H56.8334C57.75 26.8231 58.1667 26.8231 58.5 26.4897C58.8334 26.1564 58.9167 25.3231 58.9167 22.5731H63.0834M70.25 17.5731H80.4167C80.4167 13.8231 80.1667 12.9897 79.75 12.5731C79.5 12.3231 79.1667 12.1564 77.8334 12.1564H72.8334C71.5 12.1564 71.1667 12.3231 70.8334 12.6564C70.5 12.9897 70.3334 13.7397 70.25 17.5731ZM70.25 20.9064C70.25 25.3231 70.5834 26.1564 70.9167 26.4897C71.25 26.8231 71.5 26.9064 72.75 26.9064H78.5834C79.4167 26.9064 79.75 26.7397 80 26.4897C80.25 26.2397 80.3334 25.6564 80.4167 23.7397H84.5834C84.5834 27.2397 84.25 28.4064 83.0834 29.5731C82.4167 30.2397 81.4167 30.6564 79.5 30.6564H72.25C70.0834 30.6564 68.75 30.3231 67.8334 29.4064C66.4167 27.9897 66 26.2397 66 19.5731C66 12.9064 66.4167 11.2397 67.8334 9.73975C68.75 8.90641 70.0834 8.48975 72.25 8.48975H78.3334C80.5 8.48975 81.9167 8.90641 82.75 9.65641C84.1667 11.1564 84.5834 12.8231 84.5834 19.3231V20.5731C84.5834 20.9064 84.5 21.0731 84.0834 21.0731H70.25M101.333 26.4064C101 26.7397 100.5 26.9064 99.0834 26.9064H95.8334C94.416 26.8337 93.04 26.4037 91.8334 25.6564L91.5834 25.5731V13.4897C92.8478 12.7355 94.2793 12.306 95.75 12.2397H99.0834C100.417 12.2397 100.917 12.4064 101.333 12.7397C101.917 13.4064 102.167 14.5731 102.167 19.5731C102.167 24.5731 102 25.7397 101.333 26.3231V26.4064ZM100.083 8.40641H97.0834C95.25 8.40641 94.3334 8.82308 91.5834 11.1564V8.40641H87.25V35.5731H91.5834V28.0731C94.3334 30.3231 95.25 30.7397 97.0834 30.7397H100.083C102.5 30.7397 103.667 30.3231 104.667 29.4064C105.833 28.1564 106.333 26.4897 106.333 19.5731C106.333 12.6564 105.833 10.9897 104.667 9.73975C103.667 8.82308 102.5 8.40641 100.083 8.40641ZM127 9.73975C126.167 8.90641 125.083 8.40641 123.167 8.40641H119.667C117.833 8.40641 116.917 8.82308 114.083 11.1564V2.65641C112.782 1.90378 111.378 1.34247 109.917 0.989746V30.6564H114.083V13.4897L115 13.0731C116.033 12.5439 117.173 12.2588 118.333 12.2397H121.167C122.583 12.2397 123 12.4064 123.5 12.8231C123.725 13.1318 123.886 13.483 123.971 13.8553C124.057 14.2277 124.067 14.6135 124 14.9897V30.5731H128.333V14.7397C128.333 11.6564 127.833 10.5731 127 9.73975Z" fill="#3B434A"/>
</svg>
