<svg width="240" height="30" viewBox="0 0 240 30" fill="none" xmlns="http://www.w3.org/2000/svg">
<g clip-path="url(#clip0_44_55)">
<path d="M0 0.321777H28.372V8.90854H20.2657V29.5168H8.43053V8.90854H0" fill="#0080C6"/>
<path d="M42.747 12.1286L36.8024 29.5168H25.4536L36.5862 0.321777H48.9078L60.3106 29.5168H48.7997" fill="#0080C6"/>
<path d="M57.6086 0.321777H85.9806V8.90854H77.8744V29.5168H66.0392V8.90854H57.6086" fill="#0080C6"/>
<path d="M100.356 12.1286L94.4111 29.5168H83.0623L94.1949 0.321777H106.516L117.919 29.5168H106.408" fill="#0080C6"/>
<path d="M132.295 23.7209C134.024 24.6869 136.618 25.5456 139.374 25.5456C142.779 25.5456 144.67 23.9356 144.67 21.5742C144.67 19.3739 143.211 18.0859 139.482 16.7442C134.618 15.0268 131.538 12.4508 131.538 8.31843C131.538 3.54204 135.537 0 141.914 0C145.102 0 147.426 0.644007 148.939 1.44902L147.642 5.7424C146.562 5.20572 144.562 4.34705 141.806 4.34705C138.401 4.34705 136.996 6.11807 136.996 7.83542C136.996 10.0894 138.671 11.1091 142.617 12.6118C147.696 14.5438 150.128 17.0662 150.128 21.2522C150.128 25.9213 146.562 30 139.05 30C135.969 30 132.727 29.1413 131.16 28.1753" fill="#0080C6"/>
<path d="M159.045 4.93725H150.669V0.429199H172.826V4.93725H164.395V29.5169H159.045" fill="#0080C6"/>
<path d="M192.551 16.6367H181.527V25.1698H193.902V29.5169H176.177V0.429199H193.254V4.82991H181.527V12.2897H192.551" fill="#0080C6"/>
<path d="M215.789 16.6367H204.765V25.1698H217.086V29.5169H199.415V0.429199H216.438V4.82991H204.765V12.2897H215.789" fill="#0080C6"/>
<path d="M222.653 0.429199H228.003V25.0625H240V29.5169H222.653" fill="#0080C6"/>
</g>
<defs>
<clipPath id="clip0_44_55">
<rect width="240" height="30" fill="white"/>
</clipPath>
</defs>
</svg>
