<svg width="167" height="28" viewBox="0 0 167 28" fill="none" xmlns="http://www.w3.org/2000/svg">
<path d="M3.48692 26.9092H-3.05176e-05V-1.90735e-05H3.48692V26.9092Z" fill="white"/>
<path d="M19.3193 17.6229C20.8394 16.1029 21.7461 14.3273 22.0306 12.3073C22.0973 11.8384 22.1306 11.3539 22.1306 10.8539C22.1306 10.7873 22.1306 10.7139 22.1262 10.645C21.5061 10.0161 20.8038 9.47392 20.0238 9.03169L19.9082 8.99613C19.3037 8.65835 18.6859 8.38724 18.0436 8.20057C17.1747 7.92946 16.2746 7.7939 15.3367 7.7939C12.6876 7.7939 10.4319 8.73169 8.56952 10.605C6.80938 12.3806 5.8782 14.494 5.7893 16.9451H3.01575V20.4318H6.2849C6.97162 22.4563 8.22728 24.0808 10.043 25.3097C11.432 26.2519 13.0721 26.7986 14.75 26.8919C16.4946 26.9919 18.1281 26.6586 19.6482 25.8986L19.986 25.6741C20.6838 25.2986 21.2817 24.8719 21.7817 24.3985L18.9704 22.1852C17.9458 22.9608 16.7991 23.3719 15.5234 23.423H14.9256C14.5967 23.3963 14.3478 23.3608 14.1766 23.3074C12.7499 23.0319 11.5742 22.3341 10.6519 21.2096C10.443 20.9607 10.2608 20.6985 10.1008 20.4296H12.5743C15.1989 20.4296 17.448 19.4918 19.3215 17.6185L19.3193 17.6229ZM9.27625 16.9473C9.38515 15.0984 10.2608 13.5584 11.8898 12.3295C12.7232 11.7095 13.7388 11.3606 14.7745 11.2984C16.0123 11.2251 16.988 11.3873 17.6947 11.7717L17.7992 11.8339C18.2259 12.0895 18.4303 12.614 18.2525 13.0762C17.9303 13.9073 17.4125 14.6584 16.7013 15.3251C15.5701 16.3851 14.0544 16.9451 12.5032 16.9451H9.27625V16.9473Z" fill="white"/>
<path d="M109.334 17.6229C110.854 16.1029 111.761 14.3273 112.045 12.3073C112.112 11.8384 112.146 11.3539 112.146 10.8539C112.146 10.7873 112.146 10.7139 112.141 10.645C111.521 10.0161 110.819 9.47392 110.039 9.03169L109.923 8.99613C109.319 8.65835 108.701 8.38724 108.059 8.20057C107.19 7.92946 106.289 7.7939 105.352 7.7939C102.703 7.7939 100.447 8.73169 98.5844 10.605C96.8243 12.3806 95.8931 14.494 95.8042 16.9451H93.0306V20.4318H96.2998C96.9865 22.4563 98.2422 24.0808 100.058 25.3097C101.447 26.2519 103.087 26.7986 104.765 26.8919C106.509 26.9919 108.143 26.6586 109.663 25.8986L110.001 25.6741C110.699 25.2986 111.297 24.8719 111.797 24.3985L108.985 22.1852C107.961 22.9608 106.814 23.3719 105.538 23.423H104.94C104.612 23.3963 104.363 23.3608 104.192 23.3074C102.765 23.0319 101.589 22.3341 100.667 21.2096C100.458 20.9607 100.276 20.6985 100.116 20.4296H102.589C105.214 20.4296 107.463 19.4918 109.336 17.6185L109.334 17.6229ZM99.2934 16.9473C99.4023 15.0984 100.278 13.5584 101.907 12.3295C102.74 11.7095 103.756 11.3606 104.792 11.2984C106.029 11.2251 107.005 11.3873 107.712 11.7717L107.816 11.8339C108.243 12.0895 108.447 12.614 108.27 13.0762C107.947 13.9073 107.43 14.6584 106.718 15.3251C105.587 16.3851 104.072 16.9451 102.52 16.9451H99.2934V16.9473Z" fill="white"/>
<path d="M163.312 17.6229C164.832 16.1029 165.739 14.3273 166.023 12.3073C166.09 11.8384 166.123 11.3539 166.123 10.8539C166.123 10.7873 166.123 10.7139 166.119 10.645C165.498 10.0161 164.796 9.47392 164.016 9.03169L163.901 8.99613C163.296 8.65835 162.678 8.38724 162.036 8.20057C161.167 7.92946 160.267 7.7939 159.329 7.7939C156.68 7.7939 154.424 8.73169 152.562 10.605C150.802 12.3806 149.871 14.494 149.782 16.9451H147.008V20.4318H150.277C150.964 22.4563 152.22 24.0808 154.035 25.3097C155.424 26.2519 157.064 26.7986 158.742 26.8919C160.487 26.9919 162.12 26.6586 163.641 25.8986L163.978 25.6741C164.676 25.2986 165.274 24.8719 165.774 24.3985L162.963 22.1852C161.938 22.9608 160.791 23.3719 159.516 23.423H158.918C158.589 23.3963 158.34 23.3608 158.169 23.3074C156.742 23.0319 155.567 22.3341 154.644 21.2096C154.435 20.9607 154.253 20.6985 154.093 20.4296H156.567C159.191 20.4296 161.44 19.4918 163.314 17.6185L163.312 17.6229ZM153.269 16.9473C153.378 15.0984 154.253 13.5584 155.882 12.3295C156.716 11.7095 157.731 11.3606 158.767 11.2984C160.005 11.2251 160.98 11.3873 161.687 11.7717L161.792 11.8339C162.218 12.0895 162.423 12.614 162.245 13.0762C161.923 13.9073 161.405 14.6584 160.694 15.3251C159.562 16.3851 158.047 16.9451 156.496 16.9451H153.269V16.9473Z" fill="white"/>
<path d="M42.0464 17.4702V26.9636C42.0464 26.9992 42.0175 27.0281 41.9819 27.0281H38.6217C38.5861 27.0281 38.5572 26.9992 38.5572 26.9636V17.6502C38.5572 15.9501 37.9194 14.2857 36.6993 13.1034C35.457 11.899 33.9524 11.3323 32.1878 11.4056C30.8166 11.4612 29.4876 11.999 28.4697 12.919C27.0052 14.2412 26.3229 15.8835 26.4251 17.8479C26.4963 19.2302 27.0696 20.5569 28.0119 21.5724C29.2343 22.8858 30.7255 23.5436 32.4878 23.5436H32.4945C33.4435 23.5436 34.2124 24.3102 34.2124 25.2592V26.8792C33.6368 26.9792 33.0634 27.0281 32.4878 27.0281C29.6832 27.0281 27.3185 25.9836 25.3984 23.8969C23.9138 22.2836 23.036 20.1769 22.9426 17.988C22.8115 14.9724 23.856 12.4368 26.0784 10.3812C27.6919 8.89006 29.8032 8.01449 31.9967 7.92338C34.8369 7.8056 37.2505 8.73895 39.2351 10.7234C41.1085 12.5968 42.0464 14.8457 42.0464 17.4702Z" fill="white"/>
<path d="M132.063 17.4702V26.9636C132.063 26.9992 132.034 27.0281 131.998 27.0281H128.638C128.602 27.0281 128.573 26.9992 128.573 26.9636V17.6502C128.573 15.9501 127.936 14.2857 126.715 13.1034C125.473 11.899 123.969 11.3323 122.204 11.4056C120.833 11.4612 119.504 11.999 118.486 12.919C117.021 14.2412 116.339 15.8835 116.441 17.8479C116.512 19.2302 117.086 20.5569 118.028 21.5724C119.25 22.8858 120.742 23.5436 122.504 23.5436H122.511C123.46 23.5436 124.229 24.3102 124.229 25.2592V26.8792C123.653 26.9792 123.08 27.0281 122.504 27.0281C119.699 27.0281 117.335 25.9836 115.415 23.8969C113.93 22.2836 113.052 20.1769 112.959 17.988C112.828 14.9724 113.872 12.4368 116.095 10.3812C117.708 8.89006 119.819 8.01449 122.013 7.92338C124.853 7.8056 127.267 8.73895 129.251 10.7234C131.125 12.5968 132.063 14.8457 132.063 17.4702Z" fill="white"/>
<path d="M54.4137 17.3548C54.4137 15.6814 53.8181 14.2503 52.6335 13.0636C51.469 11.8991 49.86 11.2836 48.2132 11.2836H47.4798V26.9127C45.5552 26.9127 43.9928 25.3526 43.9928 23.426V10.1636C43.9928 8.85689 45.0507 7.7991 46.3575 7.7991H48.3398C50.9645 7.7991 53.2113 8.73689 55.087 10.6102C56.9605 12.4836 57.8984 14.7325 57.8984 17.357V26.9149H54.4137V17.357V17.3548Z" fill="white"/>
<path d="M137.336 17.3548C137.336 19.6281 138.432 21.4526 140.619 22.8282C141.248 23.2237 141.981 23.4282 142.726 23.4282H144.273V7.7991C146.197 7.7991 147.759 9.35912 147.759 11.2858V26.9149H143.41C140.786 26.9149 138.539 25.9771 136.663 24.1037C134.79 22.2304 133.852 19.9815 133.852 17.357V7.7991H137.336V17.357V17.3548Z" fill="white"/>
<path d="M93.2933 14.4444C93.28 12.0333 93.2755 2.16207 93.2755 0.213156H89.8264V12.0266C89.8508 15.6756 89.8019 18.0556 89.6775 19.1667C89.5508 20.2801 89.1641 21.1979 88.5152 21.9223C87.5906 22.9712 86.4283 23.4957 85.0304 23.4957C83.6325 23.4957 82.4813 22.9712 81.5813 21.9223C80.9301 21.1979 80.5434 20.2801 80.419 19.1667C80.3634 18.6778 80.3212 17.9445 80.2901 16.9667H76.7164C76.6898 17.9445 76.6498 18.6801 76.5964 19.1667C76.4698 20.2801 76.0831 21.1979 75.4341 21.9223C74.5096 22.9712 73.3606 23.4957 71.9849 23.4957C70.6093 23.4957 69.4225 22.9712 68.5002 21.9223C67.8491 21.1979 67.4624 20.2801 67.3379 19.1667C67.2134 18.0556 67.1623 15.6756 67.189 12.0266V0.213156H63.7398C63.7398 2.08651 63.7265 11.9511 63.7021 14.4244C63.7021 16.8223 63.7087 18.3356 63.7198 18.9601C63.731 19.5845 63.7998 20.1356 63.9265 20.609C64.3999 22.6579 65.4066 24.2379 66.9445 25.349C68.4824 26.4624 70.1626 27.0179 71.9849 27.0179C74.334 26.9935 76.2964 26.1801 77.8699 24.5823L77.8876 24.5646C78.2254 24.2268 78.7788 24.2335 79.1055 24.5823C80.7034 26.1824 82.6791 26.9935 85.0282 27.0179C86.8284 27.0179 88.5018 26.469 90.0508 25.369C91.5998 24.269 92.611 22.6845 93.0866 20.609C93.1866 20.1334 93.2489 19.5912 93.2733 18.9778C93.2978 18.3667 93.3044 16.8556 93.2911 14.4422L93.2933 14.4444Z" fill="white"/>
</svg>
