<svg width="167" height="28" viewBox="0 0 167 28" fill="none" xmlns="http://www.w3.org/2000/svg">
<path d="M3.48691 27.3951H-3.8147e-05V0.485905H3.48691V27.3951Z" fill="#FC6F20"/>
<path d="M19.3193 18.1088C20.8394 16.5888 21.7461 14.8132 22.0306 12.7932C22.0973 12.3243 22.1306 11.8399 22.1306 11.3399C22.1306 11.2732 22.1306 11.1999 22.1262 11.131C21.5061 10.5021 20.8038 9.95984 20.0238 9.51761L19.9082 9.48206C19.3037 9.14428 18.6859 8.87316 18.0436 8.68649C17.1747 8.41538 16.2746 8.27982 15.3367 8.27982C12.6876 8.27982 10.4319 9.21761 8.56953 11.091C6.80939 12.8665 5.87821 14.9799 5.78931 17.431H3.01575V20.9178H6.2849C6.97163 22.9422 8.22728 24.5667 10.043 25.7956C11.432 26.7378 13.0721 27.2845 14.75 27.3778C16.4946 27.4778 18.1281 27.1445 19.6482 26.3845L19.986 26.16C20.6838 25.7845 21.2817 25.3578 21.7817 24.8845L18.9704 22.6711C17.9458 23.4467 16.7991 23.8578 15.5234 23.9089H14.9256C14.5967 23.8822 14.3478 23.8467 14.1767 23.7933C12.7499 23.5178 11.5742 22.82 10.6519 21.6955C10.443 21.4467 10.2608 21.1844 10.1008 20.9155H12.5743C15.199 20.9155 17.448 19.9777 19.3215 18.1044L19.3193 18.1088ZM9.27626 17.4333C9.38515 15.5844 10.2608 14.0443 11.8898 12.8154C12.7232 12.1954 13.7388 11.8465 14.7745 11.7843C16.0124 11.711 16.988 11.8732 17.6947 12.2576L17.7992 12.3199C18.2259 12.5754 18.4303 13.0999 18.2525 13.5621C17.9303 14.3932 17.4125 15.1444 16.7013 15.811C15.5701 16.871 14.0544 17.431 12.5032 17.431H9.27626V17.4333Z" fill="#FC6F20"/>
<path d="M109.334 18.1088C110.854 16.5888 111.761 14.8132 112.045 12.7932C112.112 12.3243 112.146 11.8399 112.146 11.3399C112.146 11.2732 112.146 11.1999 112.141 11.131C111.521 10.5021 110.819 9.95984 110.039 9.51761L109.923 9.48206C109.319 9.14428 108.701 8.87316 108.059 8.68649C107.19 8.41538 106.289 8.27982 105.352 8.27982C102.703 8.27982 100.447 9.21761 98.5844 11.091C96.8243 12.8665 95.8931 14.9799 95.8042 17.431H93.0306V20.9178H96.2998C96.9865 22.9422 98.2422 24.5667 100.058 25.7956C101.447 26.7378 103.087 27.2845 104.765 27.3778C106.509 27.4778 108.143 27.1445 109.663 26.3845L110.001 26.16C110.699 25.7845 111.297 25.3578 111.797 24.8845L108.985 22.6711C107.961 23.4467 106.814 23.8578 105.538 23.9089H104.94C104.612 23.8822 104.363 23.8467 104.192 23.7933C102.765 23.5178 101.589 22.82 100.667 21.6955C100.458 21.4467 100.276 21.1844 100.116 20.9155H102.589C105.214 20.9155 107.463 19.9777 109.336 18.1044L109.334 18.1088ZM99.2934 17.4333C99.4023 15.5844 100.278 14.0443 101.907 12.8154C102.74 12.1954 103.756 11.8465 104.792 11.7843C106.029 11.711 107.005 11.8732 107.712 12.2576L107.816 12.3199C108.243 12.5754 108.447 13.0999 108.27 13.5621C107.947 14.3932 107.43 15.1444 106.718 15.811C105.587 16.871 104.072 17.431 102.52 17.431H99.2934V17.4333Z" fill="#FC6F20"/>
<path d="M163.312 18.1088C164.832 16.5888 165.739 14.8132 166.023 12.7932C166.09 12.3243 166.123 11.8399 166.123 11.3399C166.123 11.2732 166.123 11.1999 166.119 11.131C165.498 10.5021 164.796 9.95984 164.016 9.51761L163.901 9.48206C163.296 9.14428 162.678 8.87316 162.036 8.68649C161.167 8.41538 160.267 8.27982 159.329 8.27982C156.68 8.27982 154.424 9.21761 152.562 11.091C150.802 12.8665 149.871 14.9799 149.782 17.431H147.008V20.9178H150.277C150.964 22.9422 152.22 24.5667 154.035 25.7956C155.424 26.7378 157.064 27.2845 158.742 27.3778C160.487 27.4778 162.12 27.1445 163.641 26.3845L163.978 26.16C164.676 25.7845 165.274 25.3578 165.774 24.8845L162.963 22.6711C161.938 23.4467 160.791 23.8578 159.516 23.9089H158.918C158.589 23.8822 158.34 23.8467 158.169 23.7933C156.742 23.5178 155.567 22.82 154.644 21.6955C154.435 21.4467 154.253 21.1844 154.093 20.9155H156.567C159.191 20.9155 161.44 19.9777 163.314 18.1044L163.312 18.1088ZM153.269 17.4333C153.378 15.5844 154.253 14.0443 155.882 12.8154C156.716 12.1954 157.731 11.8465 158.767 11.7843C160.005 11.711 160.98 11.8732 161.687 12.2576L161.792 12.3199C162.218 12.5754 162.423 13.0999 162.245 13.5621C161.923 14.3932 161.405 15.1444 160.694 15.811C159.562 16.871 158.047 17.431 156.496 17.431H153.269V17.4333Z" fill="#FC6F20"/>
<path d="M42.0464 17.9561V27.4495C42.0464 27.4851 42.0175 27.514 41.9819 27.514H38.6217C38.5861 27.514 38.5572 27.4851 38.5572 27.4495V18.1361C38.5572 16.4361 37.9194 14.7716 36.6993 13.5894C35.457 12.3849 33.9524 11.8182 32.1878 11.8916C30.8166 11.9471 29.4876 12.4849 28.4698 13.4049C27.0052 14.7272 26.3229 16.3694 26.4251 18.3339C26.4963 19.7161 27.0696 21.0428 28.0119 22.0584C29.2343 23.3717 30.7255 24.0295 32.4879 24.0295H32.4945C33.4435 24.0295 34.2124 24.7962 34.2124 25.7451V27.3651C33.6368 27.4651 33.0635 27.514 32.4879 27.514C29.6832 27.514 27.3185 26.4695 25.3984 24.3828C23.9138 22.7695 23.036 20.6628 22.9426 18.4739C22.8115 15.4583 23.856 12.9227 26.0784 10.8671C27.6919 9.37598 29.8032 8.50042 31.9967 8.4093C34.8369 8.29153 37.2505 9.22487 39.2351 11.2093C41.1085 13.0827 42.0464 15.3316 42.0464 17.9561Z" fill="#FC6F20"/>
<path d="M132.063 17.9561V27.4495C132.063 27.4851 132.034 27.514 131.998 27.514H128.638C128.602 27.514 128.573 27.4851 128.573 27.4495V18.1361C128.573 16.4361 127.936 14.7716 126.715 13.5894C125.473 12.3849 123.969 11.8182 122.204 11.8916C120.833 11.9471 119.504 12.4849 118.486 13.4049C117.021 14.7272 116.339 16.3694 116.441 18.3339C116.512 19.7161 117.086 21.0428 118.028 22.0584C119.25 23.3717 120.742 24.0295 122.504 24.0295H122.511C123.46 24.0295 124.229 24.7962 124.229 25.7451V27.3651C123.653 27.4651 123.08 27.514 122.504 27.514C119.699 27.514 117.335 26.4695 115.415 24.3828C113.93 22.7695 113.052 20.6628 112.959 18.4739C112.828 15.4583 113.872 12.9227 116.095 10.8671C117.708 9.37598 119.819 8.50042 122.013 8.4093C124.853 8.29153 127.267 9.22487 129.251 11.2093C131.125 13.0827 132.063 15.3316 132.063 17.9561Z" fill="#FC6F20"/>
<path d="M54.4137 17.8407C54.4137 16.1673 53.8181 14.7362 52.6335 13.5495C51.469 12.3851 49.86 11.7695 48.2132 11.7695H47.4798V27.3986C45.5552 27.3986 43.9928 25.8386 43.9928 23.9119V10.6495C43.9928 9.34281 45.0507 8.28502 46.3575 8.28502H48.3398C50.9645 8.28502 53.2113 9.22281 55.087 11.0962C56.9605 12.9695 57.8984 15.2184 57.8984 17.8429V27.4008H54.4137V17.8429V17.8407Z" fill="#FC6F20"/>
<path d="M137.336 17.8407C137.336 20.1141 138.432 21.9385 140.619 23.3141C141.248 23.7097 141.981 23.9141 142.726 23.9141H144.273V8.28502C146.197 8.28502 147.759 9.84504 147.759 11.7717V27.4008H143.41C140.786 27.4008 138.539 26.463 136.663 24.5897C134.79 22.7163 133.852 20.4674 133.852 17.8429V8.28502H137.336V17.8429V17.8407Z" fill="#FC6F20"/>
<path d="M93.2933 14.9304C93.28 12.5192 93.2755 2.64799 93.2755 0.69908H89.8264V12.5126C89.8508 16.1615 89.8019 18.5415 89.6775 19.6526C89.5508 20.766 89.1641 21.6838 88.5152 22.4082C87.5907 23.4571 86.4283 23.9816 85.0304 23.9816C83.6326 23.9816 82.4813 23.4571 81.5813 22.4082C80.9301 21.6838 80.5434 20.766 80.419 19.6526C80.3634 19.1638 80.3212 18.4304 80.2901 17.4526H76.7164C76.6898 18.4304 76.6498 19.166 76.5964 19.6526C76.4698 20.766 76.0831 21.6838 75.4341 22.4082C74.5096 23.4571 73.3606 23.9816 71.985 23.9816C70.6093 23.9816 69.4225 23.4571 68.5002 22.4082C67.8491 21.6838 67.4624 20.766 67.3379 19.6526C67.2135 18.5415 67.1623 16.1615 67.189 12.5126V0.69908H63.7398C63.7398 2.57244 63.7265 12.437 63.7021 14.9104C63.7021 17.3082 63.7087 18.8215 63.7198 19.446C63.731 20.0704 63.7999 20.6215 63.9265 21.0949C64.3999 23.1438 65.4067 24.7238 66.9446 25.8349C68.4825 26.9483 70.1626 27.5039 71.985 27.5039C74.334 27.4794 76.2964 26.6661 77.8699 25.0683L77.8876 25.0505C78.2255 24.7127 78.7788 24.7194 79.1055 25.0683C80.7034 26.6683 82.6791 27.4794 85.0282 27.5039C86.8284 27.5039 88.5018 26.955 90.0508 25.8549C91.5999 24.7549 92.6111 23.1705 93.0866 21.0949C93.1867 20.6193 93.2489 20.0771 93.2733 19.4638C93.2978 18.8526 93.3044 17.3415 93.2911 14.9281L93.2933 14.9304Z" fill="#FC6F20"/>
</svg>
